<svg width="48" height="48" viewBox="0 0 48 48" fill="none" xmlns="http://www.w3.org/2000/svg">
<g id="Icone deletar">
<path id="Ellipse 13" d="M48 24C48 37.2548 37.2548 48 24 48C10.7452 48 0 37.2548 0 24C0 10.7452 10.7452 0 24 0C37.2548 0 48 10.7452 48 24ZM6 24C6 33.9411 14.0589 42 24 42C33.9411 42 42 33.9411 42 24C42 14.0589 33.9411 6 24 6C14.0589 6 6 14.0589 6 24Z" fill="white"/>
<path id="Vector" d="M16.5367 32.2018L32.2018 16.5367M16.5367 16.5367L32.2018 32.2018" stroke="white" stroke-width="5" stroke-linecap="round"/>
</g>
</svg>
