<svg width="48" height="48" viewBox="0 0 48 48" fill="none" xmlns="http://www.w3.org/2000/svg">
<g id="Icone relat&#195;&#179;rio">
<path id="Rectangle 41" d="M5.18656 42.7081L2.5 44.0102V10C2.5 5.85786 5.85786 2.5 10 2.5H38C42.1421 2.5 45.5 5.85786 45.5 10V43.9294L43.1306 42.728L42 42.1547L40.8694 42.728L35.9914 45.2013L31.0246 42.7211L29.8903 42.1547L28.7631 42.7351L24.0379 45.1685L19.6652 42.7666L18.5489 42.1534L17.3966 42.6959L12.0679 45.2048L7.45037 42.7503L6.32918 42.1543L5.18656 42.7081Z" stroke="white" stroke-width="5"/>
<line id="Line 8" x1="9.75" y1="10.5" x2="37.5" y2="10.5" stroke="white" stroke-width="3"/>
<line id="Line 11" x1="9.75" y1="28.5" x2="37.5" y2="28.5" stroke="white" stroke-width="3"/>
<line id="Line 10" x1="9.75" y1="22.5" x2="37.5" y2="22.5" stroke="white" stroke-width="3"/>
<line id="Line 9" x1="9.75" y1="16.5" x2="37.5" y2="16.5" stroke="white" stroke-width="3"/>
</g>
</svg>
